<svg xmlns="http://www.w3.org/2000/svg" viewBox="0 0 400 250" fill="none">
  <rect width="400" height="250" fill="url(#pg2)"/>
  <defs>
    <linearGradient id="pg2" x1="0" y1="0" x2="1" y2="1">
      <stop offset="0%" stop-color="#003366"/>
      <stop offset="100%" stop-color="#001a33"/>
    </linearGradient>
  </defs>
  <!-- Map pin / location -->
  <path d="M200 70 C160 70 140 100 140 120 C140 150 200 180 200 180 C200 180 260 150 260 120 C260 100 240 70 200 70 Z" fill="rgba(255,255,255,.08)" stroke="rgba(255,255,255,.15)" stroke-width="2"/>
  <circle cx="200" cy="115" r="14" fill="rgba(254,104,17,.15)"/>
  <circle cx="200" cy="115" r="6" fill="rgba(254,104,17,.3)"/>
  <!-- Route dots -->
  <circle cx="80" cy="180" r="4" fill="rgba(255,255,255,.2)"/>
  <circle cx="110" cy="170" r="4" fill="rgba(255,255,255,.15)"/>
  <circle cx="290" cy="170" r="4" fill="rgba(255,255,255,.15)"/>
  <circle cx="320" cy="180" r="4" fill="rgba(255,255,255,.2)"/>
  <line x1="84" y1="180" x2="106" y2="170" stroke="rgba(255,255,255,.1)" stroke-width="1.5" stroke-dasharray="3 3"/>
  <line x1="294" y1="170" x2="316" y2="180" stroke="rgba(255,255,255,.1)" stroke-width="1.5" stroke-dasharray="3 3"/>
  <rect x="60" y="210" width="280" height="6" rx="3" fill="rgba(255,255,255,.06)"/>
</svg>